<svg viewBox="0 0 32 32" xmlns="http://www.w3.org/2000/svg"><path d="M27.3393 12.0593L5.33933 4.05933C5.16073 3.99491 4.96748 3.98265 4.78217 4.02401C4.59686 4.06537 4.42715 4.15864 4.29289 4.29289C4.15864 4.42715 4.06537 4.59686 4.02401 4.78217C3.98265 4.96748 3.99491 5.16073 4.05933 5.33933L12.0593 27.3393C12.1292 27.5326 12.2569 27.6997 12.4251 27.8177C12.5933 27.9358 12.7938 27.9992 12.9993 27.9993C13.1996 27.9995 13.3953 27.9396 13.5612 27.8273C13.727 27.7149 13.8552 27.5554 13.9293 27.3693L17.7693 17.7693L27.3693 13.9293C27.5591 13.8574 27.7224 13.7294 27.8377 13.5624C27.953 13.3954 28.0147 13.1973 28.0147 12.9943C28.0147 12.7914 27.953 12.5933 27.8377 12.4263C27.7224 12.2593 27.5591 12.1313 27.3693 12.0593H27.3393ZM16.6293 16.0593L16.2293 16.2193L16.0693 16.6193L12.9993 24.1993L6.66933 6.66933L24.1993 12.9993L16.6293 16.0593Z"/></svg>
